<svg width="21" height="12" viewBox="0 0 21 12" fill="none" xmlns="http://www.w3.org/2000/svg">
<path d="M18.934 0.988113L10.4998 9.20961L2.06571 0.988113C1.91502 0.840925 1.71273 0.758523 1.50209 0.758523C1.29144 0.758523 1.08915 0.840925 0.938464 0.988113C0.8655 1.0596 0.807534 1.14493 0.767962 1.2391C0.728391 1.33328 0.708008 1.4344 0.708008 1.53655C0.708008 1.6387 0.728391 1.73982 0.767962 1.83399C0.807534 1.92817 0.8655 2.0135 0.938464 2.08499L9.9109 10.833C10.0685 10.9866 10.2798 11.0725 10.4998 11.0725C10.7199 11.0725 10.9312 10.9866 11.0888 10.833L20.0612 2.08668C20.1347 2.01513 20.1931 1.92959 20.233 1.83511C20.2729 1.74062 20.2934 1.63911 20.2934 1.53655C20.2934 1.43399 20.2729 1.33248 20.233 1.23799C20.1931 1.14351 20.1347 1.05797 20.0612 0.986425C19.9105 0.839237 19.7082 0.756836 19.4976 0.756836C19.2869 0.756836 19.0847 0.839237 18.934 0.986425V0.988113Z" fill="white"/>
</svg>
